# xmcd
#
# Track frame offsets:
#	150
#	17450
#	37005
#	55269
#	73345
#	89292
#	108072
#	125197
#	142100
#	158907
#	177675
#	191070
#
# Disc length: 2740 seconds
#
# Revision: 2
# Processed by: cddbd v1.5.2PL0 Copyright (c) Steve Scherf et al.
# Submitted via: EasyCDDAExtractor 16.0.1.1
#
DISCID=b20ab20c
DTITLE=Terri Clark - Honky Tonk Songs
DYEAR=2005
DGENRE=Country
TTITLE0=Honky Tonk Song
TTITLE1=I Wish He'd Been Drinkin Whisk
TTITLE2=Damn Right (I'm Gonna Miss You
TTITLE3=The World Needs A Drink
TTITLE4=Cowboy Days
TTITLE5=Travelin Soul
TTITLE6=Bigger Windows
TTITLE7=Everybody's Gotta Go Sometime
TTITLE8=You Gotta Love That
TTITLE9=Slow News Day
TTITLE10=Tear It All Down
TTITLE11=Last Good Time
EXTD=
EXTT0=
EXTT1=
EXTT2=
EXTT3=
EXTT4=
EXTT5=
EXTT6=
EXTT7=
EXTT8=
EXTT9=
EXTT10=
EXTT11=
PLAYORDER=
